<svg id="chat-arrow-grow" xmlns="http://www.w3.org/2000/svg" width="15" height="15" viewBox="0 0 15 15">
  <path id="Trazado_4" data-name="Trazado 4" d="M14.063,13.125H3.438a1.562,1.562,0,0,1-1.562-1.562V.938A.938.938,0,1,0,0,.938V11.563A3.441,3.441,0,0,0,3.438,15H14.063a.938.938,0,0,0,0-1.875Z" fill="#fff"/>
  <path id="Trazado_5" data-name="Trazado 5" d="M16.12,3.976H14.191a.625.625,0,0,0-.442,1.067l.458.458h0L11.965,7.741a.313.313,0,0,1-.443,0l-.106-.106a2.239,2.239,0,0,0-3.094,0L5.76,10.2a.937.937,0,1,0,1.326,1.326L9.648,8.96a.313.313,0,0,1,.443,0l.106.106a2.241,2.241,0,0,0,3.094,0l2.241-2.241h0l.458.458a.625.625,0,0,0,1.068-.442V4.913a.938.938,0,0,0-.937-.938Z" transform="translate(-2.057 -1.491)" fill="#fff"/>
</svg>
