<svg xmlns="http://www.w3.org/2000/svg" width="14.25" height="19" viewBox="0 0 14.25 19">
  <path id="mobile" d="M13.292,0H6.958A3.963,3.963,0,0,0,3,3.958V15.042A3.963,3.963,0,0,0,6.958,19h6.333a3.963,3.963,0,0,0,3.958-3.958V3.958A3.963,3.963,0,0,0,13.292,0Zm2.375,15.042a2.375,2.375,0,0,1-2.375,2.375H10.917v-.792a.792.792,0,0,0-1.583,0v.792H6.958a2.375,2.375,0,0,1-2.375-2.375V3.958A2.375,2.375,0,0,1,6.958,1.583h6.333a2.375,2.375,0,0,1,2.375,2.375Zm-2.375-2.375a.792.792,0,0,1-.792.792H7.75a.792.792,0,0,1,0-1.583H12.5A.792.792,0,0,1,13.292,12.667Zm-4.75-2.375A.792.792,0,0,0,9.333,9.5V8.708h1.583V9.5a.792.792,0,1,0,1.583,0V6.333a2.375,2.375,0,1,0-4.75,0V9.5A.792.792,0,0,0,8.542,10.292Zm1.583-4.75a.792.792,0,0,1,.792.792v.792H9.333V6.333A.792.792,0,0,1,10.125,5.542Z" transform="translate(-3)" fill="#fff"/>
</svg>
