<svg id="user_1_" data-name="user (1)" xmlns="http://www.w3.org/2000/svg" width="14.25" height="19" viewBox="0 0 14.25 19">
  <path id="Trazado_2" data-name="Trazado 2" d="M10.75,9.5A4.75,4.75,0,1,0,6,4.75,4.75,4.75,0,0,0,10.75,9.5Zm0-7.917A3.167,3.167,0,1,1,7.583,4.75,3.167,3.167,0,0,1,10.75,1.583Z" transform="translate(-3.625)" fill="#fff"/>
  <path id="Trazado_3" data-name="Trazado 3" d="M10.125,14A7.133,7.133,0,0,0,3,21.125a.792.792,0,1,0,1.583,0,5.542,5.542,0,0,1,11.083,0,.792.792,0,0,0,1.583,0A7.133,7.133,0,0,0,10.125,14Z" transform="translate(-3 -2.917)" fill="#fff"/>
</svg>
