<svg xmlns="http://www.w3.org/2000/svg" width="15.771" height="15.771" viewBox="0 0 15.771 15.771">
  <path id="users_1_" data-name="users (1)" d="M4.928,8.543A2.957,2.957,0,1,1,7.885,5.586,2.957,2.957,0,0,1,4.928,8.543Zm0-4.6A1.643,1.643,0,1,0,6.571,5.586,1.643,1.643,0,0,0,4.928,3.943Zm4.928,9.2A3.29,3.29,0,0,0,6.571,9.857H3.286A3.29,3.29,0,0,0,0,13.142v2.628H1.314V13.142a1.971,1.971,0,0,1,1.971-1.971H6.571a1.971,1.971,0,0,1,1.971,1.971v2.628H9.857ZM11.5,5.914a2.957,2.957,0,1,1,2.957-2.957A2.957,2.957,0,0,1,11.5,5.914Zm0-4.6a1.643,1.643,0,1,0,1.643,1.643A1.643,1.643,0,0,0,11.5,1.314Zm4.271,9.2a3.29,3.29,0,0,0-3.286-3.286H9.857V8.543h2.628a1.971,1.971,0,0,1,1.971,1.971v2.628h1.314Z"/>
</svg>
